<svg aria-hidden="true" style="width:0;height:0;position:absolute;overflow:hidden" xmlns="http://www.w3.org/2000/svg"><defs><symbol id="burger-close" viewBox="0 0 32 32"><path fill="none" stroke-width="2" d="m2.52 2 26.96 28M2 29.48 30 2.52"/></symbol><symbol id="burger-open" viewBox="0 0 46 32"><path fill="none" stroke="#D41443" stroke-width="2.286" d="M0 2.286h45.714M0 16h45.714M0 29.714h45.714"/></symbol><symbol id="arrow" viewBox="0 0 26 32"><path fill="none" stroke-linejoin="round" stroke-linecap="round" stroke-width="6.4" d="M3.542 3.2 20.368 16 3.542 28.8"/></symbol><symbol id="facebook" viewBox="0 0 16 32"><path fill="#fff" d="M14.266 15.97H10.09v15.39H3.762V15.968H.754V10.56h3.008V7.062C3.762 4.558 4.946.64 10.146.64l4.688.019v5.25h-3.402c-.557 0-1.342.282-1.342 1.475v3.184h4.73l-.554 5.4z"/></symbol><symbol id="github" viewBox="0 0 32 32"><path fill="#fff" d="M16 .941C7.728.941.941 7.728.941 16c0 7.058 4.954 13.469 11.53 15.059v-4.982c-.651.142-1.251.147-1.915-.048-.89-.264-1.613-.856-2.149-1.76-.342-.578-.949-1.203-1.581-1.157l-.155-1.76c1.368-.115 2.55.835 3.253 2.016.312.523.672.832 1.133.968.445.131.923.067 1.482-.128.139-1.117.651-1.536 1.037-2.123-3.922-.586-5.485-2.667-6.106-4.309-.822-2.181-.381-4.906 1.072-6.627.029-.034.08-.122.061-.182-.667-2.014.144-3.68.176-3.856.768.227.893-.229 3.341 1.258l.422.254c.176.106.122.045.299.032a12.42 12.42 0 0 1 3.15-.446h.01c1.147.018 2.247.183 3.294.478l-.09-.022.138.013c-.013 0 .037-.008.12-.058 3.056-1.851 2.947-1.246 3.766-1.512.03.176.832 1.869.171 3.856-.088.275 2.651 2.784 1.133 6.81-.621 1.643-2.184 3.725-6.106 4.31.502.766 1.107 1.174 1.104 2.755v6.219c6.576-1.59 11.53-8 11.53-15.059 0-8.27-6.787-15.058-15.059-15.058z"/></symbol><symbol id="logo-icecrema" viewBox="0 0 127 32"><path fill="#fff" d="M31.36 16.32C31.36 24.98 24.483 32 16 32S.64 24.98.64 16.32 7.517.64 16 .64s15.36 7.02 15.36 15.68z"/><path fill="#d41443" style="fill:var(--color2,#d41443)" d="M11.849.561C4.444 2.804 0 8.635 0 16.003c0 6.022 3.091 11.277 8.179 13.904 2.64 1.345 3.027.384.579-1.474-1.738-1.409-2.061-2.05-2.061-4.421 0-1.666-.386-3.011-.966-3.524-1.158-.961-1.288-3.46-.128-4.357.45-.384.901-1.666.965-2.819.323-4.228 4.895-8.201 9.467-8.201s9.144 3.972 9.466 8.201c.064 1.153.515 2.435.966 2.819 1.158.897 1.03 3.396-.129 4.357-.579.513-.966 1.858-.966 3.524 0 2.371-.321 3.012-2.06 4.421-2.705 2.115-1.932 2.883 1.094 1.025 4.251-2.627 7.406-8.33 7.406-13.391 0-10.124-10.561-18.325-19.964-15.506z"/><path fill="#d41443" style="fill:var(--color2,#d41443)" d="M12.687 7.994c-1.16.513-2.125 1.154-2.125 1.538 0 .705 3.478 1.987 5.474 1.987s5.474-1.281 5.474-1.987c0-.768-3.993-2.499-5.603-2.499-.644.064-2.125.448-3.22.961zm33.164 3.332c-.966.256-1.158 1.089-1.158 5.702v5.382h4.572l-.193-5.574c-.193-5.83-.451-6.28-3.22-5.51zm7.535.32c-2.125 1.154-2.898 2.563-2.898 5.318 0 3.78 2.061 5.574 5.86 5.318 2.576-.192 2.833-.385 3.027-1.987s.064-1.73-1.932-1.602c-2.061.192-2.125.064-2.125-2.051s.129-2.243 1.997-2.05c1.545.128 2.125-.128 2.382-1.089.129-.641 0-1.538-.387-1.923-.901-.897-4.25-.897-5.924.064zm7.664.064c-.194.513-.258 3.012-.129 5.638l.193 4.742H65.3c3.864 0 4.186-.128 4.379-1.474.193-1.217-.064-1.409-2.06-1.409-1.288 0-2.319-.32-2.319-.641 0-.385.902-.641 1.932-.641 1.481 0 1.932-.256 1.932-1.281s-.451-1.281-1.932-1.281c-1.03 0-1.932-.32-1.932-.641 0-.385.837-.641 1.868-.641 1.804 0 3.027-1.409 2.254-2.627-.58-.961-7.985-.705-8.371.256zm12.943-.192c-2.125.833-2.962 2.307-3.027 4.998-.065 4.613 1.803 6.215 6.633 5.766 1.868-.128 2.189-.448 2.189-1.794 0-1.409-.257-1.602-2.061-1.409-1.546.128-2.125-.064-2.447-1.089-.58-1.987.644-3.588 2.705-3.588 1.224 0 1.868-.384 1.996-1.217.451-2.051-2.833-3.011-5.989-1.666zm7.921-.256c-.323.256-.515 2.883-.515 5.83v5.382l2.06-.192c1.61-.128 2.19-.577 2.512-1.795l.386-1.602.515 1.73c.387 1.474.837 1.795 2.512 1.795 2.769 0 3.091-.449 1.932-2.691-.708-1.41-.837-2.115-.322-2.627.837-.833.902-3.652.129-4.87-.644-1.025-8.371-1.858-9.208-.961zm5.28 3.46c0 .705-.257 1.281-.644 1.281-.322 0-.644-.576-.644-1.281s.322-1.282.644-1.282c.387 0 .644.577.644 1.282zm6.247-3.396c-.258.192-.451 2.819-.451 5.766v5.318h4.186c4.057 0 4.186-.064 4.186-1.602 0-1.346-.322-1.602-1.932-1.602-1.03 0-1.932-.32-1.932-.641 0-.385.708-.641 1.61-.641 1.159 0 1.61-.321 1.61-1.282s-.451-1.281-1.61-1.281c-.902 0-1.61-.32-1.61-.641 0-.384.902-.641 1.932-.641 1.61 0 1.932-.256 1.932-1.602 0-1.538-.193-1.602-3.735-1.602-2.061 0-3.992.192-4.186.448zm13.009-.064c-1.16.32-4.122 8.842-3.542 10.252.515 1.281 3.413 1.153 4.186-.192.579-1.089.644-1.089 1.803 0 1.482 1.281 4.701 1.474 4.701.256 0-.384-.644-2.947-1.482-5.574-1.288-4.228-1.674-4.805-3.027-4.933-.902 0-2.061.064-2.64.192zm1.803 5.83c-.193.641-.322.256-.322-.769 0-1.089.129-1.538.322-1.153.129.448.129 1.345 0 1.922zm7.47-5.766c-.58.192-.837 1.986-.837 5.702v5.382h1.868c1.61 0 1.932-.321 2.189-1.795.257-1.666.257-1.666.772-.32.258.833.902 1.474 1.352 1.474.515 0 1.224-.641 1.546-1.474.515-1.346.58-1.346.58.384.065 1.602.257 1.795 2.061 1.602l1.996-.192.065-5.318c.129-4.933.064-5.318-1.288-5.638-2.061-.512-3.799.705-4.379 3.076l-.451 2.115-.708-2.243c-.902-3.012-2.254-3.78-4.765-2.755zm-106.707.641c-.193.256-.387 1.089-.387 1.922 0 1.474.064 1.474 7.406 1.474 7.341 0 7.405 0 7.405-1.474 0-2.179-.579-2.435-2.64-1.409-2.319 1.217-7.213 1.217-9.531 0-1.03-.513-1.997-.705-2.254-.513zm-1.868 5.702c-1.03 1.089.708 1.538 5.731 1.538h5.409v2.243c0 1.217.322 2.243.644 2.243.386 0 .644-.961.644-2.179 0-2.115.129-2.243 2.576-2.435 1.416-.128 2.576-.512 2.576-.832 0-.705-16.872-1.282-17.581-.577z"/><path fill="#d41443" style="fill:var(--color2,#d41443)" d="M8.629 23.308c0 3.524 1.224 4.229 7.406 4.229s7.405-.705 7.405-4.229c0-1.538-.322-2.179-.966-2.179-.579 0-.965.577-.965 1.538 0 3.588-4.895 3.908-5.603.384-.322-1.858-.515-1.922-3.799-1.922H8.629v2.179zm3.993 7.24c.387 2.051 6.955 1.859 6.955-.128 0-.705-.837-.961-3.606-.961-3.027 0-3.542.192-3.348 1.089z"/></symbol><symbol id="telegram" viewBox="0 0 40 32"><path fill="#fff" d="m16.206 20.75-.636 8.34c.908 0 1.302-.366 1.774-.802l4.26-3.8 8.83 6.034c1.62.84 2.76.398 3.196-1.39l5.796-25.346h.002c.514-2.236-.866-3.108-2.444-2.56L2.92 13.398c-2.324.84-2.29 2.052-.396 2.6l8.71 2.528L31.46 6.712c.952-.588 1.82-.264 1.106.326L16.204 20.75z"/></symbol><symbol id="icon-check" viewBox="0 0 34 32"><path stroke-width=".427" d="m8.442 16.538-.147-.141-.147.139-2.057 1.95.162.156 7.605 7.253.147-.141 16.171-15.426-.162-.154-2.029-1.935-.147.141-13.98 13.325-5.417-5.167z"/></symbol></defs></svg>